<svg width="160" height="231" viewBox="0 0 160 231" fill="none" xmlns="http://www.w3.org/2000/svg">
<path d="M0.160777 0L0 230.928L160 231V0.059198L0.160777 0ZM5.91318 225.009L6.06923 5.91972L154.089 5.97892V225.079L5.91318 225.009Z" fill="white"/>
<path d="M17.7331 17.9995V59.7489C25.203 61.131 31.9537 65.0896 36.8128 70.9374C41.6719 76.7851 44.3325 84.1526 44.3325 91.7604C44.3325 99.3682 41.6719 106.736 36.8128 112.583C31.9537 118.431 25.203 122.39 17.7331 123.772V165.521C36.2468 164.034 53.5223 155.618 66.1197 141.95C78.7171 128.281 85.7122 110.362 85.7122 91.761C85.7122 73.1598 78.7171 55.241 66.1197 41.5724C53.5223 27.9038 36.2468 19.4882 17.7331 18.0013V17.9995Z" fill="white"/>
<path d="M55.4796 17.7698C56.0675 18.1175 56.6509 18.4713 57.2298 18.8312L57.2422 18.8395C57.821 19.2002 58.395 19.5674 58.964 19.9412L58.9758 19.9489C59.546 20.3242 60.1119 20.7058 60.6734 21.0937H60.6764C61.2422 21.4856 61.803 21.8838 62.3586 22.2883C62.9103 22.6889 63.4556 23.096 63.9947 23.5096L64.0047 23.5173C64.5434 23.9293 65.0768 24.3476 65.6048 24.7722L65.6154 24.7805C66.1435 25.2048 66.6666 25.6353 67.1848 26.0722L67.1948 26.0805C67.711 26.5146 68.2219 26.956 68.7275 27.4047L68.7364 27.4124L68.7659 27.4385C69.7841 28.3407 70.7805 29.2659 71.755 30.2142C72.2381 30.6855 72.7157 31.1618 73.1878 31.6433L73.1943 31.6498C73.6829 32.149 74.1652 32.6536 74.6413 33.1635C74.6584 33.1818 74.6755 33.1996 74.6921 33.2179L74.6998 33.2262C77.1444 35.8504 79.4231 38.6248 81.5226 41.5333L81.6178 41.6642V41.6671C83.194 43.8606 84.6672 46.1298 86.0373 48.4748L86.1278 48.6281V48.6317C89.9126 55.1368 92.8209 62.1149 94.7771 69.3844L94.78 69.3957C95.2316 71.0775 95.64 72.7776 95.9912 74.4991C95.9912 74.5062 95.9911 74.5127 95.9947 74.5198C96.1637 75.3486 96.3162 76.1821 96.4611 77.0185V77.0256C96.4823 77.144 96.5012 77.2677 96.5202 77.3885C96.6467 78.1407 96.7633 78.8964 96.8701 79.6557L96.8736 79.6765C96.8991 79.8594 96.9251 80.0417 96.9499 80.2252C97.0734 81.1457 97.1863 82.0686 97.2815 82.998V83.0122C97.4765 84.9421 97.605 86.8902 97.6669 88.8568C97.6704 88.9402 97.6746 89.0231 97.6769 89.1066V89.1125C97.7035 89.9916 97.7212 90.873 97.7212 91.7586C97.7212 92.4631 97.7124 93.1649 97.6947 93.8643C97.6882 94.1602 97.674 94.4562 97.6645 94.7522C97.6503 95.1364 97.6391 95.5218 97.6202 95.9048C97.5965 96.3961 97.5658 96.8857 97.5345 97.3741C97.5244 97.5221 97.5167 97.6701 97.5061 97.8186C96.228 116.265 89.0103 133.798 76.9364 147.786L142.268 213.213V148.052H124.535V17.8184L55.4695 17.7592H55.4731L55.4796 17.7698Z" fill="white"/>
<path d="M68.6252 156.203C68.2462 156.538 67.8645 156.869 67.4803 157.198L67.4709 157.206C65.2827 159.066 63.0027 160.816 60.6308 162.457L60.6202 162.464C60.1517 162.787 59.6788 163.107 59.2016 163.422C59.191 163.429 59.1797 163.436 59.1685 163.444C56.2812 165.352 53.2809 167.084 50.1841 168.629L50.1427 168.65C47.0175 170.207 43.7999 171.571 40.5081 172.735C40.5017 172.737 40.4952 172.739 40.4885 172.74C33.1508 175.327 25.4943 176.896 17.7319 177.403V213.169L100.882 213.206L100.891 213.226H125.565L68.6252 156.203Z" fill="white"/>
</svg>
